<svg xmlns="http://www.w3.org/2000/svg" viewBox="0 0 2000 2000" width="2000" height="2000" role="img" aria-label="Medien Hafen Pizza Logo">
<title>MedienHafen Pizza</title>
<g fill="#000000" fill-rule="evenodd">
<path d="M1243,1610L1243,1641L1245,1642L1251,1639L1259,1637L1263,1635L1263,1633L1258,1628L1246,1612Z"/>
<path d="M771,1588L766,1598L765,1603L763,1606L763,1608L758,1619L758,1621L760,1623L762,1623L765,1625L767,1625L774,1628L777,1628L778,1629L787,1629L788,1628L790,1628L795,1624L799,1617L799,1615L800,1614L800,1606L798,1602L793,1597L785,1593L783,1593L780,1591L778,1591Z"/>
<path d="M817,1188L816,1189L812,1189L811,1190L806,1191L800,1194L787,1205L784,1211L782,1213L782,1215L780,1218L780,1221L778,1225L778,1229L777,1230L777,1242L778,1243L778,1247L779,1248L780,1253L784,1261L786,1263L787,1266L794,1273L807,1281L810,1281L816,1284L830,1284L831,1283L838,1282L841,1280L843,1280L847,1278L861,1265L869,1249L869,1245L870,1244L870,1227L869,1226L869,1223L866,1217L866,1215L864,1213L862,1208L858,1204L858,1203L850,1196L841,1191L839,1191L832,1188Z"/>
<path d="M906,1107L905,1108L899,1109L888,1113L882,1117L874,1125L870,1131L865,1143L865,1147L864,1148L864,1165L865,1166L865,1170L870,1181L874,1187L884,1196L894,1201L900,1202L901,1203L917,1203L918,1202L922,1202L925,1200L930,1199L932,1197L935,1196L939,1192L940,1192L948,1183L952,1177L952,1175L955,1168L955,1165L956,1164L956,1148L955,1147L953,1137L950,1131L945,1124L936,1115L924,1109L921,1109L916,1107Z"/>
<path d="M767,1013L751,1019L744,1024L739,1029L739,1030L735,1033L727,1052L727,1072L728,1073L728,1076L729,1077L730,1082L733,1088L737,1094L744,1101L750,1105L762,1110L765,1110L766,1111L781,1111L782,1110L789,1109L795,1105L800,1103L803,1101L811,1092L812,1089L815,1086L820,1075L820,1072L821,1071L821,1055L820,1054L820,1050L819,1049L818,1044L814,1036L806,1026L792,1017L790,1017L783,1014L780,1014L779,1013Z"/>
<path d="M1166,937L1165,938L1158,939L1147,944L1143,948L1142,948L1132,959L1128,968L1125,971L1125,999L1127,1001L1127,1003L1133,1014L1142,1024L1148,1028L1160,1033L1165,1033L1166,1034L1177,1034L1178,1033L1183,1033L1186,1031L1189,1031L1193,1028L1196,1027L1210,1014L1215,1005L1215,1003L1217,999L1217,996L1218,995L1218,975L1217,974L1217,971L1215,969L1215,967L1210,958L1200,947L1194,944L1192,942L1184,939L1181,939L1176,937Z"/>
<path d="M890,842L889,843L886,843L876,847L870,851L860,861L854,872L854,874L852,878L852,886L851,887L852,904L855,911L859,916L859,918L861,920L862,923L867,928L871,930L874,933L878,935L880,935L883,937L886,937L891,939L905,939L906,938L909,938L910,937L915,936L921,933L927,929L938,917L943,906L944,900L945,899L945,883L944,882L944,877L942,874L940,867L934,858L928,852L922,848L911,843L908,843L907,842Z"/>
<path d="M991,761L990,762L985,762L982,764L979,764L976,767L976,814L977,815L977,827L976,828L977,830L977,839L976,840L976,848L977,849L976,853L977,854L977,857L976,858L976,860L977,861L977,889L976,890L976,948L975,949L975,1039L974,1040L974,1047L973,1048L974,1052L973,1053L973,1066L972,1067L972,1079L971,1080L971,1095L970,1096L970,1107L969,1108L969,1125L968,1126L967,1150L966,1151L966,1159L965,1160L965,1173L964,1174L963,1201L962,1202L962,1212L961,1213L961,1223L960,1224L960,1235L959,1236L958,1261L957,1262L957,1271L956,1272L956,1281L955,1282L955,1293L954,1294L953,1326L952,1327L952,1333L951,1334L951,1340L950,1341L950,1354L949,1355L948,1374L947,1375L947,1387L946,1388L946,1396L945,1397L945,1410L944,1411L943,1435L942,1436L942,1446L941,1447L941,1459L945,1461L951,1461L952,1462L956,1462L957,1463L967,1463L968,1464L1054,1464L1055,1463L1065,1463L1067,1461L1067,1459L1066,1458L1066,1448L1065,1447L1065,1437L1064,1436L1064,1424L1066,1422L1074,1422L1080,1419L1083,1419L1094,1415L1101,1414L1104,1412L1106,1412L1122,1406L1125,1406L1130,1403L1132,1403L1135,1401L1145,1398L1152,1394L1154,1394L1156,1392L1160,1390L1162,1390L1164,1388L1166,1388L1168,1386L1170,1386L1174,1383L1178,1382L1183,1378L1190,1375L1192,1373L1200,1369L1203,1366L1209,1363L1213,1359L1225,1351L1229,1347L1239,1342L1241,1340L1241,1336L1235,1328L1221,1314L1215,1306L1205,1296L1202,1295L1189,1281L1186,1276L1175,1264L1168,1254L1155,1239L1152,1234L1142,1223L1136,1214L1126,1203L1124,1199L1118,1193L1118,1192L1109,1182L1105,1176L1088,1157L1085,1152L1078,1145L1075,1140L1068,1133L1065,1128L1058,1121L1058,1120L1047,1108L1047,1107L1043,1103L1042,1103L1043,1113L1047,1119L1053,1125L1053,1126L1062,1136L1070,1147L1076,1153L1084,1164L1100,1182L1102,1186L1111,1196L1120,1208L1122,1212L1126,1216L1128,1220L1137,1230L1138,1233L1143,1238L1150,1248L1159,1258L1177,1282L1182,1287L1184,1291L1191,1298L1191,1300L1185,1306L1181,1308L1173,1315L1158,1325L1150,1329L1148,1331L1146,1331L1144,1333L1131,1339L1129,1341L1127,1341L1118,1346L1116,1346L1111,1349L1101,1352L1098,1354L1078,1360L1072,1363L1065,1364L1063,1366L1064,1368L1064,1375L1065,1376L1070,1376L1071,1375L1076,1375L1077,1374L1080,1374L1081,1373L1096,1370L1099,1368L1102,1368L1113,1363L1126,1359L1137,1353L1139,1353L1150,1347L1152,1345L1158,1343L1175,1332L1178,1329L1181,1328L1189,1321L1190,1321L1202,1309L1204,1309L1207,1312L1208,1315L1222,1331L1222,1334L1217,1339L1216,1339L1204,1349L1195,1354L1186,1361L1142,1384L1140,1384L1132,1388L1127,1389L1120,1393L1118,1393L1111,1396L1108,1396L1101,1399L1098,1399L1097,1400L1094,1400L1093,1401L1090,1401L1089,1402L1086,1402L1081,1404L1077,1404L1073,1406L1068,1406L1065,1408L1062,1406L1061,1394L1060,1393L1060,1387L1059,1386L1059,1379L1058,1378L1057,1362L1056,1361L1056,1348L1055,1347L1055,1334L1054,1333L1054,1316L1053,1315L1052,1286L1051,1285L1050,1262L1049,1261L1049,1256L1048,1255L1048,1244L1047,1243L1047,1237L1046,1236L1046,1221L1045,1220L1044,1197L1043,1196L1043,1186L1042,1185L1042,1173L1041,1172L1041,1160L1040,1159L1040,1145L1039,1144L1039,1132L1038,1131L1038,1118L1037,1117L1037,1110L1036,1109L1036,1095L1035,1094L1035,1084L1034,1083L1033,1051L1032,1050L1032,1019L1031,1018L1032,1016L1032,1003L1031,1002L1031,1000L1032,999L1032,991L1031,990L1031,968L1032,967L1032,961L1031,960L1031,880L1030,879L1030,875L1031,874L1031,866L1030,865L1030,767L1027,764L1022,763L1021,762L1013,762L1012,761ZM1015,788L1017,789L1017,803L1018,804L1018,840L1019,841L1020,900L1021,901L1021,937L1022,938L1022,1035L1023,1036L1023,1060L1024,1061L1025,1095L1026,1096L1026,1108L1027,1109L1027,1125L1028,1126L1029,1156L1030,1157L1030,1171L1031,1172L1031,1188L1032,1189L1032,1203L1033,1204L1033,1221L1034,1222L1035,1253L1036,1254L1036,1266L1037,1267L1037,1280L1038,1281L1038,1287L1039,1288L1039,1298L1040,1299L1041,1313L1042,1314L1042,1331L1043,1332L1043,1345L1044,1346L1044,1364L1045,1365L1045,1383L1046,1384L1047,1421L1048,1422L1048,1434L1049,1435L1049,1446L1050,1447L1050,1452L1047,1455L1038,1455L1036,1453L1036,1448L1035,1447L1034,1418L1033,1417L1033,1397L1032,1396L1032,1376L1031,1375L1030,1342L1029,1341L1029,1312L1028,1311L1028,1294L1027,1293L1027,1287L1026,1286L1026,1279L1025,1278L1025,1272L1024,1271L1024,1259L1023,1258L1022,1229L1021,1228L1021,1207L1020,1206L1020,1185L1019,1184L1018,1151L1017,1150L1017,1132L1016,1131L1016,1114L1015,1113L1015,1072L1014,1071L1014,893L1013,892L1014,890L1014,888L1013,887L1014,885L1014,879L1013,878L1013,875L1014,874L1014,872L1013,871L1014,869L1014,832L1013,831L1013,828L1014,827L1014,789Z"/>
<path d="M913,712L910,714L907,714L903,716L900,716L899,717L888,720L880,724L875,725L872,727L870,727L867,729L860,731L858,733L850,737L848,737L846,739L844,739L834,744L832,746L825,749L823,751L818,753L813,757L810,758L801,764L797,768L782,778L777,783L771,787L761,797L760,797L734,823L734,824L725,833L725,834L708,854L702,864L694,874L691,881L687,886L680,900L678,902L678,904L671,917L670,921L667,925L667,927L661,939L659,947L657,950L655,960L653,963L653,966L650,973L650,976L649,977L649,980L647,985L647,989L645,994L644,1004L643,1005L642,1018L641,1019L641,1027L640,1028L640,1036L639,1037L639,1053L638,1054L638,1089L639,1090L640,1113L641,1114L641,1120L642,1121L643,1132L645,1137L645,1142L646,1143L647,1151L648,1152L649,1159L651,1163L652,1170L653,1171L653,1173L655,1177L655,1180L657,1183L659,1191L661,1194L662,1199L665,1204L665,1206L671,1218L671,1220L691,1257L695,1262L696,1265L702,1272L708,1282L712,1286L718,1295L723,1300L726,1305L729,1307L731,1310L766,1344L798,1368L807,1373L809,1375L812,1376L814,1378L817,1379L820,1382L833,1388L835,1390L837,1390L839,1392L853,1399L855,1399L858,1401L865,1403L872,1407L885,1411L893,1415L896,1415L900,1417L903,1417L904,1418L906,1418L910,1420L913,1420L914,1421L917,1421L918,1422L923,1422L924,1423L928,1423L933,1425L937,1425L939,1420L939,1413L940,1412L940,1410L937,1408L933,1408L932,1407L928,1407L927,1406L923,1406L922,1405L915,1404L911,1402L908,1402L904,1400L901,1400L897,1398L894,1398L888,1395L880,1393L873,1389L868,1388L861,1384L859,1384L851,1380L849,1378L847,1378L845,1376L829,1368L824,1364L822,1364L810,1355L797,1347L782,1334L781,1334L770,1323L769,1323L745,1299L745,1298L731,1283L711,1256L710,1253L702,1241L699,1234L694,1227L692,1223L692,1221L684,1207L683,1202L680,1197L680,1195L674,1182L674,1179L672,1176L671,1170L669,1167L669,1164L667,1160L667,1157L666,1156L666,1153L665,1152L665,1149L663,1144L663,1140L662,1139L662,1136L660,1131L658,1111L657,1110L657,1106L656,1105L656,1091L655,1090L655,1077L654,1076L654,1055L655,1054L656,1024L657,1023L657,1017L658,1016L658,1012L659,1011L659,1006L660,1005L661,995L662,994L665,979L668,972L669,965L671,962L672,955L675,950L676,945L681,935L683,928L694,906L696,904L696,902L702,894L704,889L710,881L711,878L714,875L715,872L730,852L735,847L735,846L769,811L777,805L784,798L788,796L797,788L804,784L811,778L820,773L822,771L825,770L831,765L844,759L846,757L848,757L850,755L866,747L868,747L871,745L873,745L875,743L883,741L886,739L891,738L894,736L897,736L900,734L907,733L910,731L913,731L918,729L919,728L916,720L916,713L915,712Z"/>
<path d="M1109,713L1102,712L1098,710L1089,709L1088,708L1083,708L1082,709L1082,719L1081,720L1081,722L1085,724L1089,724L1093,726L1097,726L1098,727L1105,728L1112,731L1115,731L1121,734L1137,739L1149,745L1151,745L1162,751L1164,751L1168,754L1170,754L1172,756L1179,759L1181,761L1183,761L1197,771L1206,776L1214,783L1232,796L1265,828L1265,829L1281,846L1283,850L1287,854L1289,858L1295,865L1301,874L1302,877L1306,882L1307,885L1311,890L1313,895L1315,897L1332,933L1333,939L1335,941L1336,946L1338,949L1338,952L1340,955L1340,958L1343,965L1345,975L1347,978L1348,987L1350,992L1350,997L1352,1002L1352,1008L1353,1009L1353,1014L1354,1015L1354,1023L1355,1024L1355,1031L1356,1032L1356,1043L1357,1044L1357,1089L1356,1090L1356,1105L1355,1106L1355,1111L1354,1112L1354,1120L1353,1121L1353,1125L1352,1126L1352,1132L1350,1137L1350,1141L1349,1142L1349,1146L1347,1150L1346,1157L1344,1161L1344,1164L1342,1167L1342,1171L1339,1176L1339,1178L1334,1189L1333,1194L1330,1198L1327,1196L1320,1194L1309,1188L1307,1188L1305,1186L1305,1182L1308,1177L1309,1172L1311,1169L1311,1166L1313,1163L1313,1160L1315,1157L1316,1150L1320,1139L1320,1135L1321,1134L1321,1130L1322,1129L1323,1121L1324,1120L1324,1115L1325,1114L1325,1107L1326,1106L1326,1100L1327,1099L1327,1088L1328,1087L1328,1052L1327,1051L1327,1036L1326,1035L1326,1030L1325,1029L1325,1022L1324,1021L1323,1011L1321,1006L1321,1002L1320,1001L1319,993L1317,989L1315,978L1312,972L1312,968L1309,963L1304,947L1294,928L1294,926L1286,910L1284,908L1281,901L1279,899L1272,886L1267,880L1262,871L1251,859L1251,858L1240,847L1240,846L1218,825L1217,825L1213,821L1197,809L1188,804L1185,801L1176,795L1173,794L1170,791L1156,784L1154,782L1152,782L1148,780L1146,778L1144,778L1137,774L1135,774L1132,772L1130,772L1127,770L1122,769L1119,767L1117,767L1114,765L1112,765L1105,762L1102,762L1101,761L1099,761L1095,759L1092,759L1088,757L1084,757L1080,755L1076,755L1075,754L1067,753L1066,752L1062,752L1061,751L1056,751L1055,752L1051,752L1050,753L1040,753L1039,752L1031,752L1030,751L1022,750L1021,749L1013,749L1012,750L1000,750L999,751L997,751L996,750L979,750L976,752L949,752L948,753L942,753L938,755L934,755L924,759L920,759L919,760L902,765L892,770L890,770L887,772L880,774L873,778L871,778L853,787L846,792L831,800L819,808L815,812L801,822L794,829L793,829L776,845L776,846L765,857L760,864L754,870L754,871L749,876L747,880L741,887L737,895L733,900L731,905L727,910L727,912L725,914L719,926L719,928L715,935L715,937L706,956L705,961L702,966L702,969L695,987L695,990L694,991L694,994L692,999L692,1003L691,1004L691,1008L690,1009L690,1013L689,1014L688,1025L687,1026L687,1035L686,1036L686,1045L685,1046L685,1084L686,1085L687,1104L688,1105L689,1115L690,1116L690,1120L691,1121L691,1127L692,1128L693,1136L696,1144L696,1148L698,1152L698,1155L700,1158L700,1161L703,1168L703,1171L706,1176L706,1179L708,1182L710,1189L712,1191L712,1193L715,1198L715,1200L729,1227L733,1232L736,1238L749,1254L752,1259L756,1263L760,1269L767,1276L767,1277L795,1305L800,1308L805,1313L810,1316L814,1320L821,1324L824,1327L827,1328L830,1331L842,1339L849,1342L854,1346L887,1362L889,1362L900,1367L911,1370L916,1373L925,1374L926,1375L930,1375L934,1377L940,1377L941,1378L943,1376L944,1366L941,1364L936,1364L935,1363L928,1362L922,1359L917,1359L914,1357L899,1353L896,1351L894,1351L891,1349L884,1347L873,1341L871,1341L861,1336L859,1334L852,1331L850,1329L848,1329L842,1324L831,1318L825,1313L822,1312L814,1306L804,1297L798,1293L789,1284L788,1284L781,1277L781,1276L773,1269L749,1237L749,1235L742,1226L737,1216L732,1209L725,1195L725,1193L718,1180L714,1167L711,1161L711,1158L710,1157L709,1152L713,1149L723,1147L730,1144L733,1144L736,1142L738,1142L742,1140L745,1140L755,1136L758,1136L768,1132L771,1132L774,1130L776,1130L780,1128L783,1128L788,1125L795,1124L798,1122L801,1122L811,1118L814,1118L815,1117L820,1116L823,1114L826,1114L827,1113L832,1112L835,1110L844,1108L847,1106L850,1106L857,1103L860,1103L861,1102L884,1095L887,1093L891,1093L893,1091L896,1091L897,1090L914,1085L917,1083L920,1083L931,1078L935,1078L941,1075L944,1075L947,1073L950,1073L953,1071L959,1070L967,1066L968,1064L967,1061L966,1060L965,1061L954,1064L951,1066L945,1067L944,1068L927,1073L924,1075L921,1075L920,1076L915,1077L912,1079L908,1079L905,1081L902,1081L899,1083L879,1089L876,1091L873,1091L866,1094L863,1094L857,1097L854,1097L853,1098L848,1099L845,1101L842,1101L829,1106L826,1106L820,1109L814,1110L811,1112L808,1112L805,1114L802,1114L799,1116L787,1119L784,1121L781,1121L770,1125L767,1125L764,1127L762,1127L749,1132L746,1132L743,1134L740,1134L737,1136L734,1136L730,1138L723,1139L720,1141L717,1141L711,1144L708,1144L705,1140L705,1136L704,1135L704,1131L703,1130L703,1126L702,1125L702,1120L701,1119L701,1115L700,1114L700,1108L699,1107L699,1101L698,1100L698,1089L697,1088L697,1070L696,1069L697,1064L696,1063L696,1059L697,1058L697,1042L698,1041L698,1032L699,1031L700,1017L701,1016L701,1012L702,1011L702,1006L703,1005L705,991L706,990L707,983L711,973L711,970L712,969L713,964L717,956L719,948L726,934L726,932L729,928L729,926L731,924L731,922L736,915L738,910L742,905L743,902L749,895L753,888L757,884L761,877L778,859L781,859L813,890L814,890L817,894L829,906L830,906L836,912L836,913L843,920L844,920L849,925L849,926L968,1044L969,1046L971,1046L971,1040L969,1036L953,1020L953,1019L893,959L892,959L871,938L870,938L854,921L853,921L833,901L832,901L812,881L812,880L809,878L806,874L792,861L792,860L786,854L786,852L801,837L802,837L810,829L813,828L824,818L831,814L840,807L843,806L845,804L847,804L856,797L860,796L862,794L869,791L873,788L875,788L877,786L879,786L888,781L891,781L898,777L903,776L906,774L909,774L916,771L919,771L926,768L929,768L932,766L938,766L946,763L951,763L952,762L956,762L957,761L964,761L965,760L969,760L970,759L978,759L979,758L983,758L984,757L1001,756L1002,755L1013,755L1014,756L1020,756L1021,757L1025,757L1026,758L1045,759L1046,760L1060,761L1061,762L1066,762L1067,763L1071,763L1072,764L1077,764L1078,765L1085,766L1089,768L1092,768L1095,770L1098,770L1102,772L1105,772L1106,773L1117,776L1134,784L1136,784L1150,791L1154,794L1156,794L1161,798L1164,799L1167,802L1175,806L1185,813L1209,833L1209,835L1207,838L1187,858L1187,859L1175,871L1175,872L1173,873L1173,874L1139,909L1139,910L1125,924L1125,925L1112,938L1112,939L1100,951L1100,952L1080,972L1080,973L1067,986L1067,987L1044,1010L1044,1011L1038,1017L1038,1019L1037,1020L1037,1027L1038,1028L1078,988L1078,987L1135,928L1135,927L1146,916L1146,915L1194,865L1194,864L1210,848L1210,847L1214,843L1217,843L1244,871L1256,887L1268,905L1270,910L1272,912L1272,914L1280,926L1280,928L1284,935L1284,937L1290,949L1290,951L1292,954L1292,956L1297,969L1298,975L1300,978L1301,986L1303,990L1304,998L1305,999L1305,1003L1306,1004L1306,1008L1307,1009L1307,1015L1308,1016L1309,1028L1310,1029L1311,1049L1312,1050L1312,1065L1309,1068L1245,1068L1244,1069L1240,1069L1239,1068L1165,1068L1164,1069L1162,1068L1159,1068L1158,1069L1156,1068L1135,1068L1134,1069L1132,1069L1131,1068L1104,1068L1103,1069L1101,1069L1100,1068L1076,1068L1075,1069L1067,1069L1066,1068L1062,1068L1061,1069L1040,1068L1039,1069L1039,1076L1041,1078L1046,1079L1048,1081L1053,1082L1058,1085L1065,1087L1072,1091L1079,1093L1090,1099L1092,1099L1098,1103L1101,1103L1108,1107L1110,1107L1112,1109L1114,1109L1132,1118L1134,1118L1138,1121L1140,1121L1154,1128L1156,1128L1162,1132L1164,1132L1171,1136L1178,1138L1180,1140L1182,1140L1193,1146L1195,1146L1224,1160L1226,1160L1235,1165L1237,1165L1271,1182L1273,1182L1278,1185L1280,1185L1291,1191L1293,1191L1310,1200L1312,1200L1319,1204L1321,1204L1323,1206L1325,1206L1337,1212L1341,1212L1344,1207L1344,1204L1346,1202L1348,1195L1351,1190L1351,1188L1356,1175L1356,1172L1358,1169L1360,1159L1362,1156L1362,1151L1364,1147L1364,1142L1366,1139L1366,1134L1367,1133L1367,1128L1368,1127L1368,1122L1369,1121L1369,1116L1370,1115L1370,1110L1371,1109L1371,1101L1372,1100L1372,1089L1373,1088L1373,1068L1374,1067L1374,1064L1373,1063L1373,1056L1374,1055L1374,1036L1373,1035L1373,1028L1372,1027L1369,1027L1366,1024L1366,1017L1365,1016L1365,1011L1364,1010L1364,1003L1363,1002L1363,998L1362,997L1361,986L1360,985L1360,982L1358,977L1357,969L1356,968L1356,966L1354,962L1354,959L1352,955L1352,952L1351,951L1350,946L1348,943L1348,940L1346,937L1345,932L1340,922L1340,920L1336,913L1336,911L1331,903L1331,901L1325,889L1321,884L1318,877L1307,861L1304,855L1298,848L1294,841L1284,830L1282,826L1255,798L1254,798L1231,777L1217,768L1213,764L1201,756L1198,755L1190,749L1182,745L1180,743L1168,737L1166,737L1164,735L1162,735L1160,733L1152,729L1142,726L1125,718L1122,718ZM1312,1083L1311,1084L1311,1092L1310,1093L1310,1099L1309,1100L1309,1109L1307,1113L1307,1119L1306,1120L1306,1124L1305,1125L1305,1129L1304,1130L1301,1145L1298,1152L1298,1155L1297,1156L1293,1170L1290,1176L1288,1178L1286,1178L1279,1174L1277,1174L1272,1171L1270,1171L1268,1169L1266,1169L1264,1167L1262,1167L1251,1161L1244,1159L1242,1157L1240,1157L1236,1154L1234,1154L1225,1149L1220,1148L1206,1141L1204,1139L1199,1138L1179,1128L1177,1128L1171,1124L1168,1124L1157,1118L1150,1116L1148,1114L1146,1114L1137,1109L1135,1109L1131,1106L1129,1106L1122,1102L1117,1101L1115,1099L1108,1097L1097,1091L1090,1089L1081,1084L1072,1081L1069,1077L1070,1076L1218,1076L1219,1075L1224,1075L1225,1076L1310,1076L1312,1078Z"/>
<path d="M427,707L421,707L420,708L418,708L413,713L411,717L411,719L410,720L410,725L412,730L417,736L420,736L431,714L432,710Z"/>
<path d="M1591,668L1590,670L1598,685L1600,687L1602,692L1605,695L1610,692L1612,690L1614,685L1614,680L1610,672L1608,670L1601,667Z"/>
<path d="M923,664L922,682L921,683L921,691L920,692L920,703L921,704L921,712L922,713L922,717L923,718L923,721L928,731L931,735L940,743L946,744L947,745L963,745L964,746L967,746L968,745L967,743L961,739L951,729L947,723L947,721L945,718L945,714L947,712L948,712L952,716L954,721L958,727L968,737L980,743L990,744L991,745L1009,745L1010,744L1020,744L1021,745L1025,745L1026,744L1029,744L1042,733L1045,729L1050,719L1052,717L1052,715L1054,713L1057,714L1059,717L1057,719L1055,723L1055,725L1048,735L1037,745L1038,746L1046,746L1047,745L1051,745L1058,742L1065,737L1069,733L1073,727L1073,725L1075,722L1075,719L1076,718L1077,708L1076,707L1076,698L1075,697L1075,693L1073,688L1072,680L1068,675L1052,667L1050,667L1049,666L1044,665L1041,663L1035,662L1031,660L1027,660L1026,659L1022,659L1021,658L1013,658L1012,657L985,657L984,658L967,660L966,661L960,662L957,664L955,664L953,666L951,666L941,672L938,675L935,681L935,683L931,693L931,699L936,708L937,713L943,725L954,739L953,741L951,741L941,732L940,729L935,722L934,718L932,715L931,709L927,699L927,689L926,688L926,663L925,662ZM1067,694L1071,697L1074,703L1071,716L1068,720L1066,719L1067,713L1068,712L1068,708L1069,707L1069,699L1066,695ZM984,667L986,665L989,665L990,666L1002,666L1003,667L1011,667L1016,669L1022,669L1023,670L1027,670L1028,671L1033,671L1034,672L1041,673L1048,677L1050,677L1063,682L1066,685L1066,692L1067,694L1066,695L1064,693L1057,691L1053,688L1048,687L1044,684L1042,684L1039,682L1037,682L1033,680L1030,680L1026,678L1015,676L1004,672L998,672L997,671L990,671L989,670L986,670Z"/>
<path d="M491,596L483,603L480,608L479,615L480,616L480,619L482,624L492,635L503,642L505,642L509,644L517,644L521,642L527,636L528,631L529,630L529,625L525,614L517,605L501,593Z"/>
<path d="M1412,519L1412,525L1413,527L1419,532L1431,532L1438,529L1442,525L1432,515L1428,512L1426,512L1425,511L1420,511L1418,512Z"/>
<path d="M986,492L985,494L986,495L986,498L988,501L988,506L989,507L989,584L990,585L991,591L989,593L982,594L976,597L970,601L964,607L954,621L953,625L949,630L944,640L944,642L946,643L952,640L956,640L967,636L978,635L979,634L1013,634L1014,635L1020,635L1021,636L1029,636L1030,637L1041,638L1042,639L1049,640L1056,643L1059,643L1060,642L1058,639L1058,637L1056,635L1056,633L1053,627L1051,625L1046,615L1040,607L1031,599L1021,594L1012,593L1010,591L1012,587L1012,569L1011,568L1011,508L1012,507L1012,503L1016,495L1016,493L1015,492Z"/>
<path d="M667,445L660,439L652,439L647,441L641,448L640,455L641,456L642,463L645,463L657,455L660,452L667,448Z"/>
<path d="M978,421L977,422L977,479L978,480L978,483L983,487L1020,487L1022,483L1022,478L1023,477L1023,472L1024,471L1024,424L1022,422L1019,422L1018,421L997,421L996,420Z"/>
<path d="M989,337L988,338L988,412L989,413L995,413L996,414L1000,414L1003,412L1006,414L1012,414L1014,412L1014,410L1013,409L1013,382L1012,381L1012,376L1013,375L1013,338L1012,337L1007,337L1006,338ZM1002,403L1004,404L1004,408L1003,409L1001,408L1001,404ZM1002,352L1004,353L1004,401L1003,402L1001,401L1001,353Z"/>
<path d="M1005,301L1004,302L1004,307L1003,308L1003,311L1004,312L1004,331L1006,333L1012,333L1013,332L1013,302L1012,301Z"/>
<path d="M990,301L989,302L989,331L993,333L999,333L1001,330L1001,322L1000,321L1000,302L999,301Z"/>
<path d="M941,222L940,223L920,224L919,225L903,226L902,227L896,227L895,228L890,228L889,229L876,230L875,231L865,232L860,234L850,235L845,237L840,237L839,238L830,239L829,240L826,240L825,241L810,244L806,246L798,247L795,249L792,249L791,250L781,252L768,257L765,257L762,259L759,259L756,261L750,262L744,265L738,266L735,268L730,269L722,273L717,274L714,276L712,276L709,278L702,280L695,284L693,284L690,286L687,286L685,288L673,294L671,294L667,297L664,297L662,299L658,301L656,301L652,304L650,304L648,306L642,309L640,309L638,311L629,315L627,317L625,317L621,319L613,325L601,331L596,335L593,336L575,348L572,349L559,359L556,360L540,372L536,374L519,388L509,395L505,399L504,399L497,406L492,409L482,419L477,422L462,437L461,437L433,465L433,466L426,472L426,473L418,481L418,482L414,485L409,492L399,502L399,503L389,514L385,520L375,531L370,539L365,544L365,545L360,549L360,551L355,559L346,570L342,578L329,595L328,600L322,607L316,619L310,628L308,633L304,638L294,659L292,661L292,663L290,665L284,677L284,679L279,689L276,693L276,695L272,701L269,711L265,718L265,721L263,724L263,726L261,729L259,736L256,741L255,746L251,752L250,760L247,766L247,769L246,770L245,775L243,778L237,799L235,802L235,806L233,810L230,825L228,829L227,837L224,845L224,849L223,850L222,857L219,864L218,878L217,879L216,889L214,894L214,901L213,902L213,906L212,907L212,913L211,914L211,920L210,921L210,927L209,928L209,935L208,936L207,950L204,957L204,995L203,996L204,998L204,1001L203,1002L204,1093L206,1098L206,1109L207,1110L207,1117L208,1118L208,1126L209,1127L209,1134L210,1135L210,1141L211,1142L212,1156L213,1157L214,1167L215,1168L215,1173L216,1174L216,1179L217,1180L218,1190L219,1191L219,1201L222,1206L222,1209L224,1213L224,1217L226,1221L226,1225L227,1226L229,1237L230,1238L232,1248L234,1252L234,1255L235,1256L235,1264L239,1269L243,1284L245,1287L247,1295L249,1298L251,1311L254,1314L256,1318L258,1326L265,1340L267,1354L269,1357L274,1361L274,1363L276,1365L276,1367L278,1369L278,1371L282,1378L282,1384L285,1389L289,1393L297,1408L297,1416L300,1420L302,1420L306,1424L308,1429L312,1434L314,1443L320,1449L321,1452L327,1459L329,1463L329,1467L335,1472L343,1483L343,1485L345,1489L350,1494L352,1498L358,1504L360,1507L361,1511L375,1526L376,1531L384,1538L384,1539L389,1544L392,1550L407,1564L409,1568L422,1581L422,1582L450,1610L451,1610L459,1619L466,1624L471,1629L471,1630L479,1636L488,1645L493,1648L502,1657L505,1658L513,1664L519,1670L522,1671L526,1675L529,1676L533,1680L537,1682L554,1695L557,1696L564,1702L569,1704L583,1714L590,1717L596,1722L601,1724L613,1732L621,1735L626,1739L629,1740L631,1742L633,1742L635,1744L644,1749L647,1749L663,1758L670,1760L674,1764L681,1765L687,1768L689,1770L691,1770L696,1773L701,1774L711,1779L716,1780L719,1782L722,1782L725,1784L727,1784L735,1788L749,1792L752,1794L754,1794L758,1796L761,1796L762,1797L765,1797L768,1799L771,1799L772,1800L778,1801L788,1805L792,1805L799,1808L802,1808L803,1809L806,1809L811,1811L821,1812L825,1814L833,1815L838,1817L842,1817L846,1819L850,1819L851,1820L855,1820L856,1821L860,1821L861,1822L866,1822L867,1823L873,1823L877,1825L882,1825L883,1826L888,1826L889,1827L899,1827L900,1828L908,1828L909,1829L924,1830L925,1831L951,1832L952,1833L965,1833L966,1834L1046,1834L1047,1833L1056,1833L1057,1832L1084,1831L1085,1830L1095,1830L1096,1829L1103,1829L1104,1828L1113,1828L1114,1827L1120,1827L1121,1826L1129,1826L1130,1825L1139,1824L1143,1822L1149,1822L1150,1821L1155,1821L1160,1819L1164,1819L1168,1817L1173,1817L1177,1815L1181,1815L1186,1813L1190,1813L1191,1812L1195,1812L1196,1811L1201,1811L1204,1809L1206,1809L1210,1807L1218,1806L1219,1805L1225,1804L1232,1801L1235,1801L1240,1798L1243,1798L1247,1796L1251,1796L1252,1795L1263,1792L1268,1789L1279,1786L1286,1782L1289,1782L1292,1780L1300,1778L1305,1775L1310,1774L1314,1771L1319,1770L1330,1764L1337,1762L1357,1752L1360,1749L1363,1749L1366,1747L1368,1747L1370,1745L1386,1737L1388,1735L1392,1733L1394,1733L1396,1731L1405,1727L1408,1724L1414,1721L1416,1719L1421,1718L1426,1713L1436,1707L1440,1703L1445,1702L1450,1697L1477,1679L1486,1671L1488,1671L1505,1656L1509,1655L1518,1645L1519,1645L1533,1632L1541,1626L1558,1609L1559,1609L1561,1606L1574,1593L1575,1593L1593,1574L1596,1569L1609,1556L1613,1550L1623,1540L1626,1534L1632,1529L1634,1525L1640,1519L1640,1517L1653,1501L1658,1492L1671,1476L1671,1474L1673,1470L1677,1466L1678,1463L1681,1460L1688,1446L1692,1441L1693,1438L1696,1435L1699,1429L1702,1426L1703,1422L1710,1408L1713,1405L1714,1401L1718,1396L1718,1392L1721,1389L1721,1387L1727,1375L1729,1373L1730,1369L1734,1363L1734,1360L1739,1350L1739,1348L1743,1341L1745,1334L1748,1329L1750,1321L1753,1316L1753,1314L1755,1311L1755,1308L1758,1303L1759,1298L1761,1295L1761,1292L1762,1291L1763,1286L1765,1283L1765,1279L1766,1278L1767,1273L1769,1270L1771,1260L1773,1257L1773,1254L1774,1253L1775,1247L1777,1243L1777,1240L1779,1236L1779,1232L1781,1228L1781,1224L1782,1223L1782,1220L1783,1219L1784,1212L1785,1211L1785,1206L1786,1205L1786,1202L1788,1197L1788,1192L1790,1188L1790,1184L1791,1183L1791,1179L1792,1178L1792,1174L1793,1173L1793,1169L1794,1168L1794,1163L1795,1162L1795,1156L1796,1155L1796,1148L1797,1147L1798,1133L1799,1132L1799,1126L1800,1125L1801,1106L1802,1105L1802,1093L1803,1092L1803,1080L1804,1079L1804,1062L1805,1061L1805,1005L1804,1004L1804,988L1803,987L1804,983L1803,982L1803,970L1802,969L1802,955L1801,954L1801,949L1800,948L1800,938L1799,937L1799,931L1798,930L1798,922L1797,921L1796,908L1795,907L1793,890L1792,889L1792,886L1790,881L1790,876L1788,871L1787,861L1785,857L1784,846L1782,843L1781,834L1780,833L1778,822L1776,818L1776,815L1773,809L1773,806L1771,802L1771,798L1769,795L1769,792L1765,782L1765,779L1764,778L1761,767L1759,764L1758,759L1756,756L1755,751L1753,748L1752,743L1750,740L1749,734L1744,724L1744,722L1738,711L1737,706L1735,704L1735,701L1732,695L1730,693L1730,691L1723,678L1722,674L1719,670L1718,665L1715,659L1708,649L1702,635L1692,620L1685,606L1672,588L1671,584L1669,581L1665,577L1661,570L1658,567L1653,558L1641,544L1640,541L1635,534L1628,527L1622,518L1611,506L1608,501L1593,485L1593,484L1578,469L1578,468L1545,436L1543,433L1538,430L1527,419L1526,419L1506,401L1486,386L1483,382L1477,379L1474,376L1470,374L1465,369L1443,355L1440,352L1428,344L1426,344L1417,337L1410,334L1404,329L1402,329L1396,326L1388,320L1378,315L1376,315L1373,312L1362,307L1360,305L1358,305L1341,296L1339,296L1337,294L1335,294L1327,289L1325,289L1320,286L1318,286L1315,284L1308,282L1303,279L1298,278L1294,275L1286,273L1278,269L1276,269L1270,266L1253,261L1250,259L1244,258L1234,254L1231,254L1228,252L1225,252L1220,250L1216,250L1215,249L1213,249L1209,247L1206,247L1199,244L1191,243L1186,241L1182,241L1178,239L1174,239L1173,238L1164,237L1163,236L1159,236L1158,235L1153,235L1152,234L1144,233L1143,232L1139,232L1138,231L1132,231L1131,230L1127,230L1126,229L1113,228L1112,227L1105,227L1104,226L1095,226L1094,225L1078,224L1077,223L1067,223L1066,222L1027,221L1026,220L1003,220L1002,221L1002,235L1003,236L1003,245L1002,246L1002,267L1003,268L1003,278L1002,280L1003,281L1003,288L1005,290L1015,292L1019,296L1019,300L1018,301L1018,306L1019,307L1019,312L1018,313L1018,325L1019,326L1019,331L1020,332L1020,359L1021,360L1020,362L1020,383L1021,384L1021,398L1022,399L1024,409L1034,417L1034,419L1035,420L1035,439L1034,440L1034,443L1035,444L1035,457L1034,458L1034,461L1035,462L1035,470L1034,471L1034,474L1035,475L1035,487L1031,492L1025,496L1021,504L1020,511L1021,512L1037,512L1038,513L1062,514L1063,515L1070,515L1071,516L1078,516L1079,517L1083,517L1084,518L1090,518L1095,520L1101,520L1106,522L1111,522L1116,524L1121,524L1124,526L1129,526L1140,530L1143,530L1154,534L1157,534L1160,536L1163,536L1166,538L1177,541L1187,546L1193,547L1200,551L1202,551L1218,559L1220,559L1236,567L1238,569L1240,569L1242,571L1251,575L1253,577L1263,582L1268,586L1273,588L1276,591L1281,593L1288,599L1294,602L1299,607L1311,614L1317,620L1327,627L1335,635L1342,640L1346,645L1347,645L1366,663L1366,664L1376,674L1376,675L1390,689L1392,693L1405,707L1411,717L1421,729L1423,734L1438,755L1441,761L1441,763L1453,781L1454,786L1464,803L1464,805L1469,814L1470,819L1476,831L1476,833L1478,836L1480,843L1483,848L1483,850L1485,854L1485,857L1486,858L1486,860L1487,861L1489,869L1491,872L1491,875L1495,885L1495,888L1497,892L1497,895L1498,896L1498,899L1500,904L1501,917L1503,920L1504,928L1506,933L1506,938L1507,939L1508,950L1509,951L1509,958L1510,959L1511,975L1512,976L1512,991L1513,992L1513,1006L1514,1007L1514,1047L1513,1048L1513,1068L1512,1069L1512,1080L1511,1081L1511,1090L1510,1091L1510,1099L1509,1100L1507,1117L1506,1118L1506,1122L1505,1123L1504,1131L1502,1136L1501,1147L1500,1148L1500,1151L1499,1152L1496,1167L1493,1174L1493,1177L1492,1178L1490,1186L1488,1189L1488,1191L1486,1193L1485,1201L1484,1202L1483,1207L1481,1210L1480,1215L1475,1225L1474,1230L1470,1236L1469,1242L1460,1260L1454,1268L1454,1272L1451,1276L1449,1281L1444,1288L1442,1293L1438,1298L1437,1302L1429,1312L1428,1315L1425,1318L1420,1327L1413,1335L1406,1346L1398,1354L1393,1362L1381,1374L1376,1381L1371,1386L1370,1386L1364,1392L1364,1393L1339,1417L1338,1417L1326,1428L1306,1443L1302,1447L1298,1449L1294,1453L1291,1454L1271,1468L1266,1470L1261,1474L1251,1479L1246,1483L1242,1485L1240,1485L1238,1487L1234,1488L1222,1495L1220,1495L1215,1499L1208,1500L1202,1504L1200,1504L1195,1507L1193,1507L1191,1509L1185,1510L1175,1515L1172,1515L1157,1521L1150,1522L1147,1524L1140,1525L1133,1528L1122,1530L1118,1532L1114,1532L1113,1533L1109,1533L1108,1534L1104,1534L1103,1535L1092,1536L1091,1537L1087,1537L1086,1538L1082,1538L1081,1539L1061,1541L1060,1542L1037,1543L1036,1544L1012,1544L1011,1545L1008,1545L1007,1544L1005,1545L999,1545L998,1544L996,1544L994,1545L993,1544L971,1544L970,1543L957,1543L956,1542L948,1542L947,1541L927,1539L926,1538L922,1538L921,1537L915,1537L910,1535L899,1534L894,1532L889,1532L888,1531L878,1529L868,1525L864,1525L858,1522L854,1522L851,1520L848,1520L842,1517L831,1514L824,1510L821,1510L809,1504L802,1502L793,1497L791,1497L781,1492L777,1489L775,1489L773,1487L771,1487L769,1485L753,1477L745,1471L736,1467L732,1463L729,1462L713,1450L706,1446L702,1442L694,1437L682,1426L676,1422L649,1396L648,1396L632,1379L632,1378L626,1373L624,1369L617,1362L617,1361L612,1356L610,1352L605,1347L600,1339L593,1331L587,1321L581,1314L580,1311L578,1309L577,1306L573,1301L565,1286L563,1284L559,1275L556,1271L555,1267L553,1265L553,1263L551,1261L545,1249L545,1247L541,1240L541,1238L535,1226L534,1221L530,1214L526,1200L524,1197L524,1195L518,1179L516,1169L513,1162L512,1153L510,1149L509,1141L507,1137L507,1133L506,1132L506,1128L505,1127L505,1123L504,1122L504,1117L503,1116L503,1111L502,1110L501,1096L500,1095L500,1086L499,1085L499,1078L498,1077L498,1062L497,1061L497,1026L496,1025L496,1016L497,1015L497,990L498,989L498,980L499,979L499,971L500,970L500,959L501,958L502,944L503,943L503,938L504,937L504,933L505,932L506,922L507,921L507,918L508,917L508,914L510,909L510,905L511,904L512,896L514,892L514,888L516,884L516,881L517,880L517,878L522,865L522,862L524,859L529,842L534,832L534,829L536,827L536,825L542,813L542,811L544,809L544,807L546,805L546,803L554,787L556,785L557,781L559,779L562,772L564,770L568,761L572,756L574,751L580,743L581,740L594,723L595,720L602,712L604,708L612,699L615,694L640,667L640,666L674,634L675,634L686,624L691,621L696,616L700,614L705,609L709,607L712,604L719,600L722,597L734,589L749,581L754,577L756,577L763,572L789,559L791,559L793,557L795,557L800,554L802,554L816,547L821,546L824,544L827,544L835,540L843,538L846,536L849,536L850,535L855,534L858,532L862,532L869,529L877,528L881,526L885,526L886,525L893,524L897,522L903,522L908,520L914,520L915,519L925,518L926,517L930,517L931,516L940,516L941,515L947,515L948,514L959,514L960,513L969,513L970,512L980,512L980,506L977,498L966,488L966,479L965,478L965,469L966,468L966,464L965,463L965,418L969,413L976,409L978,405L978,401L979,400L979,396L980,395L980,344L981,343L980,332L983,329L983,296L984,295L984,291L986,289L993,289L995,287L996,222L994,220L981,220L980,221L958,221L957,222ZM933,1604L937,1602L951,1602L952,1603L971,1603L972,1604L991,1604L992,1605L1026,1606L1031,1608L1036,1614L1036,1616L1037,1617L1037,1623L1036,1624L1036,1630L1034,1633L1034,1635L965,1723L965,1725L1003,1726L1004,1725L1004,1720L1005,1719L1005,1712L1010,1706L1012,1706L1013,1705L1020,1705L1021,1706L1028,1706L1032,1709L1034,1714L1033,1744L1030,1752L1025,1756L1022,1756L1021,1757L1013,1757L1012,1756L994,1756L993,1755L975,1755L974,1754L936,1753L935,1752L929,1752L928,1751L926,1751L921,1746L920,1744L920,1730L921,1729L922,1724L937,1704L941,1700L944,1695L952,1686L955,1681L959,1677L962,1672L977,1654L980,1649L984,1645L987,1640L991,1636L991,1634L959,1633L958,1632L956,1632L955,1633L955,1645L954,1646L954,1649L949,1654L933,1654L932,1653L930,1653L927,1650L926,1648L926,1644L925,1643L926,1641L926,1622L927,1621L927,1612L928,1611L928,1609ZM1150,1593L1154,1595L1157,1598L1159,1602L1159,1606L1160,1607L1160,1617L1156,1627L1154,1629L1133,1672L1131,1674L1110,1717L1108,1719L1109,1720L1113,1720L1114,1719L1121,1719L1122,1718L1127,1718L1128,1717L1135,1717L1136,1716L1146,1715L1147,1714L1147,1708L1146,1707L1146,1698L1147,1696L1152,1692L1167,1690L1168,1691L1170,1691L1173,1694L1175,1699L1176,1710L1177,1711L1177,1717L1178,1718L1178,1724L1179,1725L1179,1731L1178,1732L1178,1734L1173,1740L1168,1741L1167,1742L1161,1742L1160,1743L1154,1743L1153,1744L1147,1744L1146,1745L1140,1745L1139,1746L1133,1746L1132,1747L1126,1747L1125,1748L1119,1748L1118,1749L1112,1749L1111,1750L1105,1750L1104,1751L1098,1751L1097,1752L1091,1752L1090,1753L1084,1753L1083,1754L1077,1754L1076,1753L1074,1753L1069,1749L1067,1745L1067,1741L1066,1740L1066,1729L1067,1728L1067,1726L1089,1682L1091,1680L1108,1645L1110,1643L1110,1641L1113,1637L1117,1629L1117,1627L1111,1627L1110,1628L1104,1628L1103,1629L1098,1629L1097,1630L1084,1631L1082,1633L1082,1637L1083,1638L1083,1650L1077,1655L1068,1656L1067,1657L1061,1657L1057,1654L1055,1651L1055,1648L1054,1647L1053,1635L1052,1634L1052,1628L1051,1627L1051,1621L1050,1620L1050,1615L1051,1614L1051,1612L1057,1606L1059,1605L1063,1605L1064,1604L1076,1603L1077,1602L1084,1602L1085,1601L1091,1601L1092,1600L1098,1600L1099,1599L1105,1599L1106,1598L1112,1598L1113,1597L1119,1597L1120,1596L1126,1596L1127,1595L1133,1595L1134,1594L1140,1594L1141,1593ZM859,1588L869,1588L874,1590L878,1590L879,1591L883,1591L884,1592L888,1592L889,1593L893,1593L898,1595L906,1596L911,1598L915,1603L915,1608L914,1609L912,1620L907,1625L898,1625L896,1630L895,1639L893,1644L893,1648L892,1649L890,1663L888,1668L888,1672L887,1673L887,1677L886,1678L884,1692L883,1693L882,1701L881,1702L881,1706L880,1707L880,1711L879,1712L880,1714L884,1715L889,1719L890,1721L890,1728L889,1729L887,1739L881,1744L877,1744L876,1743L862,1741L857,1739L843,1737L838,1735L834,1735L832,1734L827,1728L827,1723L828,1722L828,1718L829,1717L829,1713L830,1711L836,1706L842,1706L843,1707L845,1706L846,1697L848,1692L848,1688L849,1687L851,1673L853,1668L853,1664L854,1663L854,1659L855,1658L857,1644L859,1639L859,1635L860,1634L860,1630L861,1629L861,1625L862,1624L862,1620L863,1619L862,1617L860,1617L856,1615L852,1611L852,1603L853,1602L854,1594ZM1246,1564L1255,1572L1255,1573L1260,1578L1260,1579L1265,1584L1265,1585L1270,1590L1270,1591L1275,1596L1280,1603L1286,1609L1286,1610L1291,1615L1295,1621L1301,1627L1305,1633L1326,1657L1326,1658L1328,1660L1330,1660L1334,1658L1337,1658L1343,1662L1348,1674L1348,1681L1343,1686L1339,1688L1334,1689L1331,1691L1323,1693L1320,1695L1309,1698L1306,1700L1304,1700L1300,1702L1295,1702L1289,1697L1287,1690L1285,1687L1285,1684L1284,1683L1285,1679L1289,1675L1292,1674L1294,1672L1284,1660L1280,1660L1274,1663L1263,1666L1260,1668L1249,1671L1244,1674L1244,1690L1245,1691L1249,1689L1253,1689L1254,1690L1256,1690L1260,1695L1260,1697L1262,1700L1262,1702L1264,1706L1264,1711L1263,1713L1260,1716L1256,1718L1254,1718L1251,1720L1243,1722L1240,1724L1235,1725L1232,1727L1230,1727L1220,1731L1217,1731L1216,1730L1214,1730L1210,1726L1210,1724L1208,1721L1208,1719L1206,1715L1206,1708L1211,1703L1214,1702L1216,1700L1216,1671L1215,1670L1215,1578L1222,1570L1224,1570L1227,1568L1232,1567L1238,1564ZM743,1546L744,1547L749,1548L752,1550L757,1551L760,1553L765,1554L768,1556L773,1557L776,1559L781,1560L784,1562L789,1563L802,1569L804,1569L819,1578L830,1589L831,1592L834,1596L834,1598L836,1602L836,1619L835,1620L835,1623L834,1624L833,1629L827,1640L821,1647L813,1653L807,1656L805,1656L801,1658L797,1658L796,1659L789,1659L788,1660L786,1660L785,1659L775,1659L774,1658L771,1658L770,1657L767,1657L766,1656L761,1655L750,1650L747,1650L744,1656L743,1661L741,1664L740,1669L738,1672L739,1674L742,1675L747,1680L747,1687L746,1688L745,1693L743,1696L743,1698L739,1702L733,1703L732,1702L727,1701L724,1699L719,1698L716,1696L711,1695L708,1693L703,1692L700,1690L695,1689L689,1686L685,1682L685,1675L690,1663L693,1660L695,1659L700,1659L704,1661L706,1659L709,1649L713,1641L714,1636L716,1633L717,1628L719,1625L720,1620L724,1612L725,1607L727,1604L728,1599L730,1596L731,1591L733,1588L733,1586L735,1583L735,1581L737,1577L735,1574L732,1573L728,1569L728,1562L729,1561L730,1556L732,1553L732,1551L737,1546ZM313,779L321,779L322,780L332,782L335,785L335,787L336,788L336,794L335,795L337,797L340,797L341,798L345,798L346,799L354,800L359,802L368,803L373,805L377,805L382,807L386,807L391,809L395,809L396,810L404,811L405,812L409,812L410,813L418,814L419,815L425,815L426,810L431,805L439,805L440,806L444,806L445,807L450,808L453,811L454,813L454,821L452,826L452,830L450,835L450,839L449,840L449,844L447,849L447,853L446,854L445,861L444,863L438,868L424,866L420,864L417,861L417,859L416,858L416,853L417,852L416,850L413,850L408,848L404,848L399,846L395,846L390,844L386,844L381,842L377,842L372,840L363,839L358,837L354,837L353,836L345,835L344,834L334,832L334,833L341,837L344,840L392,872L395,875L397,879L397,883L396,884L394,895L390,900L388,900L387,901L382,901L381,902L376,902L375,903L371,903L370,904L365,904L364,905L359,905L358,906L353,906L352,907L347,907L346,908L341,908L340,909L336,909L335,910L318,912L317,914L321,914L326,916L330,916L335,918L339,918L344,920L353,921L358,923L362,923L367,925L371,925L372,926L380,927L381,928L385,928L386,929L394,930L395,931L399,931L400,930L401,925L405,921L407,921L408,920L415,921L416,922L420,922L425,924L428,927L428,929L429,930L429,935L428,936L428,940L427,941L426,949L424,954L424,958L422,963L422,967L421,968L420,973L415,978L408,978L407,977L397,975L392,969L392,963L393,962L392,960L388,960L383,958L374,957L369,955L365,955L360,953L356,953L351,951L347,951L342,949L338,949L337,948L329,947L324,945L320,945L315,943L311,943L306,941L304,941L303,942L302,947L296,952L289,952L288,951L280,950L275,946L274,944L274,936L275,935L275,931L277,926L277,922L279,917L279,913L281,908L281,904L282,903L282,899L283,898L285,888L288,885L292,883L297,883L298,882L303,882L304,881L309,881L310,880L315,880L316,879L321,879L322,878L328,878L329,877L346,875L343,871L337,868L334,865L303,845L297,838L297,831L298,830L298,826L300,821L300,817L302,812L302,808L304,803L304,799L305,798L305,794L306,793L307,786ZM1670,740L1673,743L1676,749L1677,755L1678,756L1678,758L1683,771L1683,775L1684,776L1683,780L1677,786L1670,788L1670,789L1673,789L1683,793L1686,795L1696,806L1698,810L1698,813L1700,818L1700,829L1699,830L1699,834L1694,843L1682,854L1671,859L1669,859L1668,860L1666,860L1665,861L1663,861L1662,862L1660,862L1659,863L1657,863L1656,864L1654,864L1653,865L1651,865L1650,866L1634,871L1633,872L1634,873L1634,877L1635,879L1634,880L1634,882L1630,886L1626,887L1623,889L1617,890L1616,891L1611,890L1607,886L1605,882L1605,879L1604,878L1604,876L1603,875L1603,873L1602,872L1602,870L1594,848L1594,845L1593,844L1594,837L1597,834L1608,830L1616,830L1623,838L1639,833L1640,832L1642,832L1643,831L1645,831L1646,830L1649,830L1665,822L1667,820L1667,818L1668,817L1668,811L1665,805L1659,800L1651,797L1642,797L1635,800L1632,800L1631,801L1614,806L1612,808L1613,809L1613,815L1609,820L1598,824L1595,824L1594,825L1590,824L1584,817L1584,815L1579,802L1579,799L1572,780L1572,773L1576,768L1578,768L1588,764L1594,764L1599,768L1602,774L1603,773L1605,773L1606,772L1608,772L1609,771L1611,771L1633,763L1636,763L1637,762L1645,760L1647,758L1647,755L1646,754L1647,748L1651,744L1661,740L1665,740L1666,739ZM408,681L416,677L419,677L420,676L424,676L425,675L434,675L435,676L441,676L442,677L450,679L453,681L455,681L464,686L466,688L464,695L462,697L462,699L439,745L440,747L442,747L443,748L454,747L458,745L464,739L468,728L468,724L467,723L467,719L466,718L466,708L473,700L475,699L481,699L485,701L491,707L494,713L495,720L496,721L496,734L495,735L495,739L492,745L492,747L484,761L479,766L479,767L470,775L467,776L463,779L461,779L457,781L454,781L453,782L446,782L445,783L442,783L441,782L433,782L432,781L428,781L427,780L422,779L417,776L415,776L400,766L394,760L387,750L387,748L384,742L383,732L382,731L382,725L383,724L383,719L384,718L385,711L390,700L394,694ZM1603,636L1609,639L1611,639L1620,645L1630,655L1634,661L1639,671L1640,677L1641,678L1641,682L1642,683L1642,693L1641,694L1641,699L1635,712L1625,723L1615,730L1605,735L1603,735L1599,730L1596,723L1594,721L1587,707L1585,705L1583,700L1577,691L1574,684L1571,680L1569,680L1563,688L1563,690L1562,691L1562,702L1563,703L1563,705L1569,714L1576,718L1578,718L1584,721L1586,723L1589,729L1589,736L1583,743L1581,743L1577,745L1572,745L1571,744L1564,743L1554,738L1550,734L1549,734L1542,726L1535,714L1535,712L1532,706L1531,699L1530,698L1530,682L1531,681L1531,678L1532,677L1533,672L1537,664L1541,660L1541,659L1554,647L1557,646L1564,641L1577,636L1580,636L1581,635L1598,635L1599,636ZM1619,545L1624,554L1626,556L1626,558L1628,562L1628,573L1625,580L1618,586L1613,588L1606,588L1605,587L1603,587L1601,586L1593,577L1593,575L1592,574L1592,565L1594,562L1591,560L1589,560L1580,564L1572,571L1572,572L1583,585L1584,588L1586,590L1586,596L1584,600L1574,608L1568,609L1564,607L1559,602L1550,590L1548,590L1511,620L1517,629L1517,635L1511,642L1503,648L1497,648L1490,642L1482,631L1465,611L1461,604L1461,600L1463,597L1474,588L1476,587L1481,587L1485,589L1489,593L1498,585L1499,585L1503,581L1504,581L1508,577L1526,563L1526,560L1522,556L1520,551L1520,548L1521,547L1521,545L1528,538L1533,535L1536,535L1537,534L1541,535L1550,544L1561,535L1571,530L1573,530L1577,528L1588,527L1589,528L1594,528L1606,533ZM450,519L452,519L453,518L458,518L465,522L473,529L506,553L510,557L539,578L555,591L557,591L564,585L570,585L577,590L585,599L583,606L568,626L562,632L555,633L546,627L546,629L548,633L548,636L549,637L549,647L548,648L547,655L541,665L534,672L528,676L526,676L520,679L508,680L507,679L501,679L500,678L492,676L482,671L472,664L456,648L449,636L449,634L447,630L447,627L446,626L446,613L447,612L447,609L451,599L457,590L463,584L469,580L471,580L474,578L478,578L479,577L479,576L457,560L455,560L449,566L444,566L437,562L429,555L428,553L428,548L446,523ZM556,485L562,485L564,486L612,536L614,536L619,532L621,532L622,531L626,532L638,544L639,546L639,551L638,553L613,578L612,578L604,586L600,588L598,588L594,586L583,575L582,569L584,565L587,562L587,560L561,533L561,532L555,526L553,526L549,530L547,530L546,531L541,530L536,526L536,525L528,516L528,512L531,507L552,487ZM1438,450L1447,450L1448,451L1453,452L1456,454L1458,454L1468,460L1473,465L1474,465L1487,479L1492,488L1492,490L1494,494L1494,499L1495,500L1495,505L1494,506L1493,515L1487,527L1459,559L1465,567L1465,572L1458,580L1458,581L1452,586L1446,586L1441,583L1420,564L1418,560L1418,555L1420,551L1425,546L1424,545L1423,546L1416,547L1415,548L1407,548L1406,547L1399,546L1393,543L1384,534L1379,525L1379,522L1378,521L1378,511L1382,500L1393,488L1398,485L1400,485L1404,483L1414,483L1415,484L1418,484L1421,486L1423,486L1439,497L1453,512L1455,512L1456,511L1456,510L1460,506L1463,499L1463,495L1461,490L1453,483L1450,483L1448,485L1446,485L1445,486L1437,486L1436,485L1434,485L1429,482L1425,478L1422,472L1422,464L1425,458L1430,453ZM514,447L523,447L530,450L538,458L540,462L541,471L540,472L539,478L531,487L525,490L512,490L508,488L500,480L498,476L498,473L497,472L497,465L500,458L505,452L509,449L511,449ZM655,410L668,410L669,411L672,411L673,412L678,413L687,418L700,431L707,442L707,445L704,448L697,452L694,455L684,461L681,464L656,481L656,483L658,485L666,489L677,489L682,487L690,480L696,464L699,461L705,458L710,458L711,459L713,459L717,463L720,470L720,480L719,481L717,489L712,498L703,507L693,514L685,518L683,518L679,520L676,520L675,521L671,521L670,522L662,522L661,521L655,521L654,520L648,519L640,515L632,509L626,503L616,489L613,483L613,481L610,474L610,470L609,469L609,454L610,453L610,450L611,449L612,444L616,436L620,432L620,431L633,419L644,413L646,413L650,411L654,411ZM802,341L806,344L809,345L817,353L822,360L839,399L841,401L846,399L849,399L850,400L852,400L855,403L860,413L860,415L861,416L861,421L860,423L854,428L852,428L845,432L843,432L824,441L822,441L816,444L811,444L809,443L805,438L801,428L801,421L808,415L807,411L803,404L803,402L800,397L800,395L792,379L786,373L784,372L778,372L772,375L769,378L766,384L766,387L765,388L765,397L766,398L766,401L768,404L768,406L771,411L771,413L775,420L775,422L777,426L779,428L781,427L787,427L789,428L792,431L794,435L794,437L797,442L798,447L796,451L793,454L787,457L785,457L778,461L776,461L771,464L769,464L764,467L762,467L757,470L749,472L742,466L737,454L737,450L738,448L742,444L745,443L746,441L738,424L738,422L734,415L734,413L731,408L731,406L728,401L728,399L727,398L721,399L720,400L715,399L710,393L710,391L706,383L706,378L707,376L713,371L715,371L720,368L722,368L729,364L731,364L739,360L744,360L746,361L751,366L753,371L754,371L755,370L755,366L759,356L769,345L777,341L780,341L785,339L795,339L796,340ZM1301,308L1307,308L1315,312L1317,314L1342,327L1348,331L1351,335L1351,341L1345,352L1341,356L1336,357L1330,354L1327,356L1323,365L1321,367L1318,374L1315,378L1315,380L1316,381L1321,383L1323,385L1330,388L1332,390L1359,404L1373,379L1373,378L1365,371L1365,365L1371,354L1375,350L1377,350L1378,349L1383,350L1393,355L1395,357L1402,360L1404,362L1411,365L1413,367L1418,369L1421,371L1427,378L1426,384L1424,386L1421,393L1416,398L1410,398L1409,397L1404,396L1401,400L1397,409L1395,411L1392,418L1390,420L1387,427L1385,429L1382,436L1380,438L1376,447L1374,449L1371,456L1369,458L1366,465L1364,467L1361,473L1361,476L1362,476L1368,483L1368,489L1364,495L1362,500L1357,504L1351,504L1343,500L1341,498L1330,493L1328,491L1314,484L1308,479L1306,475L1306,473L1312,461L1319,455L1322,455L1329,458L1332,454L1335,447L1337,445L1341,436L1343,434L1344,429L1324,419L1322,417L1315,414L1313,412L1306,409L1302,406L1300,406L1299,407L1296,414L1294,416L1291,423L1289,425L1285,434L1292,440L1293,442L1293,446L1286,459L1283,462L1277,463L1274,461L1272,461L1270,459L1263,456L1261,454L1252,450L1250,448L1235,440L1231,435L1231,431L1233,426L1235,424L1237,419L1242,414L1248,414L1252,416L1254,416L1261,403L1263,401L1267,392L1269,390L1272,383L1274,381L1277,374L1279,372L1283,363L1285,361L1288,354L1290,352L1293,345L1295,343L1297,339L1297,336L1296,336L1290,330L1290,323L1296,312Z"/>
</g>
</svg>